# xmcd CD database file
#
# Track frame offsets:
#	150
#	14720
#	27302
#	40465
#	54170
#	66765
#	79912
#	92417
#	104579
#	117722
#	130479
#	142854
#	157037
#	169484
#	182282
#	196574
#	210257
#	221702
#	234549
#	247584
#	257887
#	271014
#	283322
#	294377
#	305977
#	320084
#	331379
#	345234
#
# Disc length: 4765 seconds
#
# Revision: 0
# Processed by: cddbd v1.5.2PL0 Copyright (c) Steve Scherf et al.
# Submitted via: CDex 1.51
#
DISCID=a2129b1c
DTITLE=Various Artist - Martin Scorsese presents 'The Blues' - Highlights - disc 2
DYEAR=1900
DGENRE=Blues
TTITLE0=219 - Johnny Moore's Three Blazers (Featuring Charles Brown)-Drifting Blues
TTITLE1=220 - Louis Jordan-Let The Good Times Roll
TTITLE2=221 - Arthur 'Big Boy' Crudup-That's All Right Mama
TTITLE3=222 - T Bone Walker-Call It Stormy Monday
TTITLE4=223 - Wynonie Harris-Good Rockin' Tonight
TTITLE5=224 - Jimmy Witherspoon-Ain't Nobody's Business, Part One
TTITLE6=225 - Johnny Otis Quintette With Little Ester and The Robbins-Double Crossing Blues
TTITLE7=301 - Memphis Slim-Mother Earth
TTITLE8=302 - Percy Mayfield-Please Send Me Someone To Love
TTITLE9=303 - Jackie Brenston-Rocket 88
TTITLE10=304 - Elmore James-Dust My Broom
TTITLE11=305 - Rosco Gordon-No More Doggin'
TTITLE12=306 - Little Walter-Juke
TTITLE13=307 - Big Mama Thornton-Hound Dog
TTITLE14=308 - Lowell Fulson-Reconsider Baby
TTITLE15=309 - Guitar Slim-The Things That I Used To Do
TTITLE16=310 - Professor Longhair-In The Night
TTITLE17=311 - Muddy Waters-(I'm Your) Hoochie Coochie Man
TTITLE18=312 - J.B. Lenoir-Eisenhower Blues
TTITLE19=313 - Fats Domino-Blue Monday
TTITLE20=314 - Ray Charles-Hard Times
TTITLE21=315 - Smiley Lewis-I Hear You Knockin'
TTITLE22=316 - Elvis Presley-Mystery Train
TTITLE23=317 - Sonny Boy Williamson II-Don't Start Me To Talkin'
TTITLE24=318 - Howlin' Wolf-Smokestack Lightnin'
TTITLE25=319 - Bo Diddley-Who Do You Love
TTITLE26=320 - Slim Harpo-I'm A King Bee
TTITLE27=321 - Chuck Berry-Johnny B. Goode
EXTD=
EXTT0=
EXTT1=
EXTT2=
EXTT3=
EXTT4=
EXTT5=
EXTT6=
EXTT7=
EXTT8=
EXTT9=
EXTT10=
EXTT11=
EXTT12=
EXTT13=
EXTT14=
EXTT15=
EXTT16=
EXTT17=
EXTT18=
EXTT19=
EXTT20=
EXTT21=
EXTT22=
EXTT23=
EXTT24=
EXTT25=
EXTT26=
EXTT27=
PLAYORDER=
